<?xml version="1.0" standalone="no"?>
<!DOCTYPE svg PUBLIC "-//W3C//DTD SVG 20010904//EN"
 "http://www.w3.org/TR/2001/REC-SVG-20010904/DTD/svg10.dtd">
<svg version="1.0" xmlns="http://www.w3.org/2000/svg"
 width="1280.000000pt" height="896.000000pt" viewBox="0 0 1280.000000 896.000000"
 preserveAspectRatio="xMidYMid meet">
<g transform="translate(0.000000,896.000000) scale(0.100000,-0.100000)"
fill="#9e9e9e" stroke="none">
<path d="M12490 8913 c-306 -90 -655 -188 -1315 -368 -1051 -286 -1484 -414
-1994 -587 -260 -88 -712 -255 -806 -297 -101 -46 -196 -159 -206 -246 -3 -25
0 -31 19 -33 39 -6 19 -26 -39 -40 -92 -22 -210 -9 -479 53 -135 31 -378 82
-540 115 -162 32 -351 75 -420 96 -69 20 -186 54 -260 76 -208 61 -337 80
-520 77 -154 -3 -156 -2 -260 33 -148 51 -267 69 -470 75 -128 3 -202 1 -275
-11 -184 -28 -260 -62 -535 -242 -104 -68 -220 -135 -265 -154 -44 -18 -170
-73 -280 -123 -110 -49 -243 -107 -295 -129 -52 -22 -174 -89 -271 -149 l-175
-109 -310 35 c-359 40 -772 78 -1464 135 -272 22 -679 56 -904 75 -225 19
-413 35 -418 35 -4 0 -8 -1533 -8 -3407 l0 -3408 683 -168 c593 -147 926 -223
1058 -244 30 -4 51 2 110 33 131 68 311 273 459 521 62 104 340 678 480 994
40 90 80 170 89 177 8 6 29 12 47 12 29 0 41 -10 111 -97 97 -121 190 -201
380 -330 146 -99 487 -309 571 -352 24 -12 76 -30 116 -40 64 -16 84 -27 162
-91 176 -145 301 -214 509 -284 l110 -36 48 -101 c57 -116 134 -207 210 -246
89 -45 248 -46 451 -3 198 43 293 90 457 226 46 38 86 64 100 64 26 0 302 111
369 148 84 48 141 94 160 133 11 21 28 84 38 141 l17 103 50 -1 c288 -7 321
-3 440 55 124 62 211 157 266 292 39 95 52 169 53 291 l1 108 135 4 c154 4
251 27 400 97 104 49 123 66 166 151 60 120 93 273 96 445 0 61 4 117 8 123 5
9 21 8 59 -4 225 -67 577 17 710 169 40 46 71 113 97 210 28 102 26 368 -3
478 l-21 79 42 19 c55 25 74 24 88 -7 13 -29 160 -130 218 -150 36 -13 52 -9
361 82 976 287 1710 457 2664 620 121 20 223 40 228 44 4 3 3 60 -3 126 -6 65
-26 553 -46 1084 -19 531 -39 1080 -44 1220 -6 140 -28 745 -50 1345 -23 599
-42 1090 -43 1091 -1 1 -54 -14 -117 -33z m-4804 -3825 c33 -35 71 -76 84 -92
l25 -30 -30 21 c-49 35 -171 163 -154 163 8 0 42 -28 75 -62z m1208 -1186
c207 -200 235 -231 236 -263 0 -16 -645 625 -664 659 -12 21 155 -133 428
-396z"/>
</g>
</svg>
